<?xml version="1.0" standalone="no"?>
<!DOCTYPE svg PUBLIC "-//W3C//DTD SVG 20010904//EN"
 "http://www.w3.org/TR/2001/REC-SVG-20010904/DTD/svg10.dtd">
<svg version="1.0" xmlns="http://www.w3.org/2000/svg"
 width="512.000000pt" height="512.000000pt" viewBox="0 0 512.000000 512.000000"
 preserveAspectRatio="xMidYMid meet">

<g transform="translate(0.000000,512.000000) scale(0.100000,-0.100000)"
fill="#000000" stroke="none">
<path d="M3150 5049 c-92 -66 -248 -146 -348 -178 -64 -21 -179 -46 -352 -77
-248 -44 -406 -127 -461 -240 -12 -25 -29 -48 -38 -52 -46 -17 -146 -90 -195
-143 -101 -109 -168 -260 -202 -454 -18 -104 -24 -417 -10 -482 7 -31 6 -33
-19 -33 -45 0 -84 -31 -113 -90 -24 -50 -27 -66 -27 -165 0 -80 5 -124 18
-162 34 -97 108 -173 168 -173 23 0 27 -5 33 -40 12 -73 68 -210 118 -288 28
-42 80 -105 117 -139 36 -33 109 -102 163 -151 53 -50 123 -105 156 -123 l60
-33 6 -67 c5 -62 -5 -222 -20 -294 -3 -16 -15 -51 -26 -76 -18 -43 -26 -49
-141 -111 -67 -36 -392 -218 -722 -405 -541 -306 -606 -346 -666 -404 -140
-138 -217 -325 -235 -572 l-7 -97 2153 0 2153 0 -8 102 c-18 255 -129 497
-280 612 -38 29 -1144 659 -1352 769 -105 56 -113 63 -131 106 -38 89 -56 227
-47 353 l7 93 61 35 c34 19 96 69 138 110 42 41 104 99 139 129 130 113 222
277 264 472 5 22 10 25 31 21 60 -11 137 57 177 157 18 46 22 77 22 171 1 105
-1 120 -26 170 -30 61 -68 90 -117 90 l-31 0 6 158 c11 264 -24 479 -106 646
l-41 84 45 59 c55 70 94 164 104 247 l8 61 -66 -3 c-88 -4 -94 2 -70 66 19 50
26 134 14 166 -5 13 -13 12 -57 -11 -37 -19 -72 -27 -122 -30 -99 -6 -105 1
-70 78 18 41 30 87 33 131 2 37 3 68 1 68 -2 0 -42 -28 -89 -61z m-300 -2539
c-18 -34 -121 -109 -180 -131 -79 -30 -184 -24 -261 15 -57 28 -159 110 -159
127 0 5 126 9 305 9 304 0 306 0 295 -20z"/>
</g>
</svg>
