<?xml version="1.0" standalone="no"?>
<!DOCTYPE svg PUBLIC "-//W3C//DTD SVG 20010904//EN"
 "http://www.w3.org/TR/2001/REC-SVG-20010904/DTD/svg10.dtd">
<svg version="1.0" xmlns="http://www.w3.org/2000/svg"
 width="512.000000pt" height="512.000000pt" viewBox="0 0 512.000000 512.000000"
 preserveAspectRatio="xMidYMid meet">

<g transform="translate(0.000000,512.000000) scale(0.100000,-0.100000)"
fill="#000000" stroke="none">
<path d="M2430 5114 c-278 -34 -439 -114 -510 -255 -11 -21 -20 -45 -20 -54 0
-8 -8 -15 -17 -15 -29 0 -171 -97 -233 -159 -75 -74 -151 -191 -189 -290 -63
-163 -91 -388 -72 -579 11 -111 12 -113 49 -150 46 -46 57 -76 96 -271 l32
-156 41 -3 41 -3 6 63 c3 35 11 131 17 213 20 275 75 572 129 690 26 58 31 63
121 115 51 30 110 62 131 72 l38 18 62 -45 c85 -62 232 -136 353 -178 100 -34
293 -83 300 -75 3 2 -25 36 -60 75 l-65 71 69 -29 c100 -42 230 -62 414 -63
l158 -1 15 -50 c36 -122 83 -425 104 -675 18 -210 15 -200 58 -200 l37 0 23
124 c34 189 59 263 104 308 l38 38 1 153 c0 136 -11 269 -27 320 -4 11 1 24
12 32 18 13 18 17 -3 109 -79 346 -307 624 -632 767 -143 63 -221 79 -416 83
-93 3 -186 2 -205 0z"/>
<path d="M2080 3763 c-48 -8 -150 -45 -165 -60 -21 -20 -19 -57 4 -77 19 -17
22 -17 78 4 39 15 90 24 153 27 52 3 103 10 113 15 25 13 22 63 -5 82 -22 15
-113 20 -178 9z"/>
<path d="M2842 3754 c-26 -18 -29 -56 -6 -78 11 -12 36 -16 95 -16 59 0 100
-7 154 -25 41 -13 81 -22 90 -19 17 7 29 42 23 71 -11 56 -295 110 -356 67z"/>
<path d="M2101 3524 c-26 -33 -35 -79 -29 -154 10 -145 118 -162 149 -23 30
132 -56 258 -120 177z"/>
<path d="M2918 3533 c-59 -68 -56 -221 6 -272 60 -50 126 69 105 187 -16 84
-73 128 -111 85z"/>
<path d="M1619 1371 c-279 -157 -627 -353 -774 -436 -295 -165 -341 -202 -429
-333 -94 -142 -143 -297 -153 -484 l-6 -118 2303 0 2303 0 -6 118 c-10 187
-59 342 -153 484 -88 131 -135 168 -419 328 -142 80 -491 276 -774 436 -287
162 -520 288 -526 284 -29 -23 -158 -80 -210 -94 -181 -47 -411 -18 -595 74
l-55 27 -506 -286z"/>
</g>
</svg>
