<?xml version="1.0" standalone="no"?>
<!DOCTYPE svg PUBLIC "-//W3C//DTD SVG 20010904//EN"
 "http://www.w3.org/TR/2001/REC-SVG-20010904/DTD/svg10.dtd">
<svg version="1.0" xmlns="http://www.w3.org/2000/svg"
 width="512.000000pt" height="512.000000pt" viewBox="0 0 512.000000 512.000000"
 preserveAspectRatio="xMidYMid meet">

<g transform="translate(0.000000,512.000000) scale(0.100000,-0.100000)"
fill="#000000" stroke="none">
<path d="M2935 5113 c-11 -2 -72 -29 -135 -59 -144 -67 -235 -91 -408 -105
-260 -20 -411 -75 -541 -195 -78 -72 -117 -139 -127 -219 -6 -44 -15 -59 -70
-117 -126 -134 -180 -301 -195 -603 -5 -104 -12 -233 -15 -286 l-7 -97 27 5
c58 11 105 -74 125 -226 6 -46 11 -108 11 -138 0 -50 2 -53 24 -53 14 0 27 3
29 8 3 4 13 126 22 272 l18 265 73 150 c67 139 144 325 174 420 7 22 15 43 19
47 3 4 48 -2 99 -13 149 -30 312 -42 482 -36 132 6 355 32 453 53 25 5 27 4
27 -29 0 -45 59 -191 118 -291 50 -84 175 -224 240 -270 l39 -27 6 -122 c4
-67 12 -191 19 -274 l11 -153 27 0 27 0 6 113 c7 111 22 190 47 237 21 42 52
70 77 70 l23 0 0 228 c0 313 -27 459 -111 608 l-29 51 40 22 c63 35 101 72
121 116 28 61 25 72 -21 78 -63 8 -95 38 -127 120 -17 44 -42 86 -65 109 l-36
36 -100 4 c-110 3 -150 20 -164 69 -4 13 -15 49 -24 81 -33 114 -114 173 -209
151z"/>
<path d="M2064 3555 c-116 -25 -160 -64 -129 -112 12 -18 23 -23 38 -19 12 3
54 14 92 25 39 11 99 20 136 20 36 1 70 6 77 13 17 17 15 54 -4 72 -19 20
-122 20 -210 1z"/>
<path d="M2833 3555 c-25 -18 -30 -57 -10 -72 6 -6 51 -13 99 -16 54 -3 113
-14 153 -28 l66 -23 21 22 c18 18 20 26 12 49 -7 22 -22 32 -78 51 -92 31
-232 41 -263 17z"/>
<path d="M2128 3343 c-54 -59 -50 -216 5 -262 47 -38 106 36 107 134 0 102
-67 178 -112 128z"/>
<path d="M2906 3344 c-31 -30 -40 -60 -40 -129 0 -161 111 -199 145 -49 26
115 -46 237 -105 178z"/>
<path d="M3433 2767 c-101 -308 -253 -540 -430 -657 -42 -27 -81 -51 -87 -53
-6 -2 -8 -7 -5 -11 3 -4 52 16 107 44 79 39 120 68 184 129 129 122 242 294
317 481 45 114 47 127 20 135 -12 4 -32 18 -44 31 l-22 24 -40 -123z"/>
<path d="M1605 2850 c-17 -11 -38 -20 -47 -20 -24 0 -23 -7 12 -95 133 -335
314 -554 545 -661 86 -40 127 -41 50 -2 -204 104 -378 344 -487 672 -22 67
-41 122 -42 123 -1 1 -15 -7 -31 -17z"/>
</g>
</svg>
