<?xml version="1.0" standalone="no"?>
<!DOCTYPE svg PUBLIC "-//W3C//DTD SVG 20010904//EN"
 "http://www.w3.org/TR/2001/REC-SVG-20010904/DTD/svg10.dtd">
<svg version="1.0" xmlns="http://www.w3.org/2000/svg"
 width="512.000000pt" height="512.000000pt" viewBox="0 0 512.000000 512.000000"
 preserveAspectRatio="xMidYMid meet">

<g transform="translate(0.000000,512.000000) scale(0.100000,-0.100000)"
fill="#000000" stroke="none">
<path d="M2450 5109 c-192 -18 -357 -66 -509 -146 -151 -79 -206 -117 -297
-208 -269 -271 -414 -703 -414 -1234 0 -205 6 -256 140 -1315 66 -521 120
-948 120 -951 0 -3 463 255 600 334 28 17 52 41 63 63 38 77 67 299 53 409
l-7 54 -67 35 c-82 42 -205 162 -276 269 -90 135 -165 306 -232 529 -2 9 -12
7 -36 -8 -67 -41 -139 -13 -196 77 -47 74 -67 153 -66 263 2 155 58 258 140
260 28 0 50 -52 64 -152 30 -201 43 -274 50 -287 9 -18 46 77 65 169 19 88 35
244 35 329 0 68 2 73 54 153 68 105 161 271 206 371 l35 76 116 1 c240 0 499
69 797 211 81 38 124 54 127 46 2 -7 14 -50 25 -97 60 -240 190 -483 335 -626
l62 -61 7 -128 c10 -195 48 -445 66 -445 5 0 16 13 24 29 15 28 25 80 46 250
15 126 51 176 108 152 66 -27 106 -126 106 -256 0 -147 -52 -275 -133 -331
-54 -37 -104 -31 -158 19 -20 18 -23 18 -23 4 0 -32 -80 -261 -125 -355 -97
-204 -245 -385 -377 -461 -56 -31 -57 -32 -64 -88 -16 -130 21 -381 65 -434
18 -22 685 -401 688 -391 1 4 54 419 118 922 64 503 120 949 126 990 17 135
22 477 10 610 -31 329 -121 608 -265 824 -117 175 -239 280 -436 375 -277 133
-497 176 -770 150z"/>
<path d="M2104 3680 c-105 -19 -184 -72 -199 -132 l-7 -26 69 25 c91 34 240
43 331 19 35 -9 65 -16 67 -16 8 0 16 61 10 79 -13 42 -163 70 -271 51z"/>
<path d="M2823 3680 c-58 -12 -82 -27 -93 -56 -13 -33 4 -77 28 -70 130 40
316 31 412 -19 27 -14 30 -14 30 1 0 47 -65 105 -144 129 -61 19 -180 26 -233
15z"/>
<path d="M2110 3428 c-26 -43 -34 -88 -26 -151 7 -64 33 -101 73 -105 37 -4
58 24 73 96 28 130 -64 252 -120 160z"/>
<path d="M2901 3435 c-26 -34 -35 -80 -29 -151 9 -101 74 -144 122 -81 31 41
31 183 0 224 -29 38 -66 41 -93 8z"/>
</g>
</svg>
