<?xml version="1.0" standalone="no"?>
<!DOCTYPE svg PUBLIC "-//W3C//DTD SVG 20010904//EN"
 "http://www.w3.org/TR/2001/REC-SVG-20010904/DTD/svg10.dtd">
<svg version="1.0" xmlns="http://www.w3.org/2000/svg"
 width="512.000000pt" height="512.000000pt" viewBox="0 0 512.000000 512.000000"
 preserveAspectRatio="xMidYMid meet">

<g transform="translate(0.000000,512.000000) scale(0.100000,-0.100000)"
fill="#000000" stroke="none">
<path d="M2491 5110 c-73 -15 -182 -73 -233 -123 -108 -104 -154 -222 -145
-370 3 -51 8 -101 11 -112 6 -17 -3 -24 -61 -47 -180 -73 -362 -217 -461 -365
-215 -319 -291 -757 -227 -1303 l15 -125 -108 -485 -109 -485 81 -39 c174 -84
453 -177 693 -231 l112 -25 60 35 c53 31 62 41 80 88 27 73 43 195 39 301 l-3
89 -69 41 c-177 105 -321 315 -421 612 l-40 121 -30 -19 c-41 -25 -74 -23
-117 7 -71 48 -118 166 -118 295 0 96 21 167 61 208 40 40 52 40 77 -1 29 -50
40 -90 57 -212 20 -135 33 -187 45 -180 13 8 48 124 61 203 6 37 14 121 18
187 7 115 9 123 40 169 69 99 178 359 221 524 8 30 16 42 25 38 34 -13 537
-28 786 -24 l277 5 12 -61 c30 -156 73 -314 101 -371 17 -35 55 -88 85 -119
54 -55 54 -56 54 -118 1 -142 45 -441 64 -435 23 7 39 65 56 194 18 136 33
176 70 188 11 3 20 13 20 20 0 55 74 -17 97 -94 21 -75 14 -216 -17 -295 -24
-64 -84 -132 -125 -142 -35 -9 -73 3 -101 31 l-24 24 -10 -42 c-37 -146 -132
-362 -211 -479 -60 -88 -150 -179 -215 -217 -33 -19 -65 -41 -71 -50 -19 -22
-17 -215 3 -308 24 -116 41 -142 120 -186 82 -46 97 -45 301 7 172 45 299 93
480 181 121 60 151 78 147 92 -2 10 -43 227 -90 483 l-86 465 16 155 c20 196
21 482 1 637 -48 369 -201 678 -422 854 -71 57 -278 169 -311 169 -10 0 -12 8
-5 33 4 17 8 84 8 147 0 108 -2 119 -31 180 -17 36 -46 84 -63 108 -43 58
-138 126 -213 151 -72 25 -193 34 -257 21z"/>
<path d="M2130 3337 c-91 -21 -149 -62 -165 -116 -6 -21 -5 -23 11 -16 97 42
256 56 352 32 28 -8 54 -12 57 -9 3 3 5 23 5 44 0 35 -4 41 -34 53 -50 21
-162 27 -226 12z"/>
<path d="M2791 3340 c-54 -12 -81 -35 -81 -69 0 -46 10 -51 70 -34 76 20 227
13 299 -15 30 -12 57 -20 59 -17 10 10 -22 67 -49 85 -63 46 -205 69 -298 50z"/>
<path d="M2151 3109 c-42 -69 -33 -180 17 -219 22 -18 28 -19 46 -7 75 50 62
246 -17 255 -21 3 -31 -4 -46 -29z"/>
<path d="M2875 3124 c-53 -53 -45 -212 13 -243 50 -27 87 26 87 126 0 57 -4
77 -21 100 -25 34 -55 40 -79 17z"/>
<path d="M1505 1083 c-171 -96 -313 -178 -317 -182 -5 -4 1 -47 11 -96 36
-169 45 -275 46 -542 l0 -263 1315 0 1315 0 1 263 c0 268 9 377 45 541 11 49
16 93 12 97 -4 4 -147 86 -318 183 l-309 175 -41 -25 c-229 -143 -543 -201
-858 -159 -174 23 -419 96 -557 165 l-36 18 -309 -175z"/>
</g>
</svg>
