<?xml version="1.0" standalone="no"?>
<!DOCTYPE svg PUBLIC "-//W3C//DTD SVG 20010904//EN"
 "http://www.w3.org/TR/2001/REC-SVG-20010904/DTD/svg10.dtd">
<svg version="1.0" xmlns="http://www.w3.org/2000/svg"
 width="512.000000pt" height="512.000000pt" viewBox="0 0 512.000000 512.000000"
 preserveAspectRatio="xMidYMid meet">

<g transform="translate(0.000000,512.000000) scale(0.100000,-0.100000)"
fill="#000000" stroke="none">
<path d="M2410 5114 c-104 -10 -288 -47 -377 -75 -286 -92 -486 -238 -615
-448 -66 -108 -140 -276 -169 -388 -26 -96 -28 -261 -6 -408 49 -321 33 -396
-130 -613 -160 -213 -177 -267 -149 -497 9 -77 16 -162 16 -190 0 -110 -54
-232 -152 -342 -62 -71 -73 -106 -40 -136 9 -8 91 -40 182 -71 332 -111 728
-197 1111 -241 l56 -6 16 53 c29 92 37 157 37 297 l0 136 -68 35 c-82 43 -227
183 -294 286 -75 114 -148 269 -197 419 l-46 141 -34 -23 c-19 -13 -45 -23
-59 -23 -41 0 -100 41 -136 94 -55 82 -71 144 -71 276 0 108 2 119 30 175 29
58 84 110 109 102 6 -1 23 -27 38 -57 20 -41 31 -87 43 -175 17 -137 35 -225
45 -225 13 0 20 73 30 310 6 129 12 245 15 257 8 34 63 91 109 115 34 18 68
22 206 29 91 4 183 13 205 19 105 30 184 107 284 275 98 164 133 184 370 210
126 14 169 26 252 72 3 2 9 -27 12 -65 16 -166 85 -304 210 -422 174 -163 203
-195 231 -255 41 -87 54 -168 62 -367 4 -108 11 -175 17 -171 21 13 38 80 52
207 18 158 30 202 67 229 26 19 27 19 59 1 42 -25 67 -60 88 -122 l17 -50 1
82 c1 44 11 162 24 261 27 214 21 291 -35 458 -92 275 -237 481 -425 602 -253
163 -456 223 -781 230 -91 1 -185 1 -210 -1z"/>
<path d="M2090 3796 c-30 -7 -73 -21 -95 -31 -38 -19 -121 -92 -113 -101 3 -2
29 5 59 15 125 44 261 50 372 17 l47 -14 0 34 c0 42 -29 63 -114 81 -73 15
-84 15 -156 -1z"/>
<path d="M2861 3799 c-81 -14 -115 -37 -119 -81 l-3 -36 48 15 c32 11 85 16
163 16 98 0 126 -3 190 -25 41 -15 76 -25 78 -23 8 7 -53 66 -91 88 -79 46
-172 62 -266 46z"/>
<path d="M2103 3558 c-34 -36 -49 -116 -34 -181 21 -94 80 -124 125 -64 18 24
21 43 21 117 0 74 -3 93 -21 117 -27 36 -63 41 -91 11z"/>
<path d="M2917 3562 c-56 -62 -47 -238 14 -275 26 -16 67 1 85 34 35 69 26
197 -17 240 -24 24 -61 25 -82 1z"/>
<path d="M3838 3355 c-9 -142 -65 -264 -144 -312 -58 -34 -98 -29 -151 20 -18
16 -23 17 -27 6 -103 -352 -221 -574 -388 -734 -46 -44 -109 -94 -140 -110
l-58 -30 -2 -70 c-6 -168 12 -314 48 -401 17 -40 12 -39 183 -19 368 43 714
129 1035 256 108 43 124 53 136 84 10 26 -2 48 -65 118 -66 72 -122 182 -137
266 -9 53 -7 97 8 233 28 261 16 305 -143 516 -101 134 -120 165 -138 227 -12
38 -12 38 -17 -50z"/>
<path d="M1340 1229 c-195 -111 -356 -202 -357 -203 -1 0 7 -37 17 -81 42
-180 52 -283 57 -618 l5 -327 1502 0 1501 0 0 308 c1 186 6 344 13 402 12 86
45 261 57 300 4 12 -86 67 -353 218 -197 111 -361 202 -364 202 -3 0 -8 -48
-11 -107 -27 -463 -220 -777 -540 -878 -239 -76 -573 -48 -758 64 -127 77
-245 224 -307 381 -51 131 -92 345 -92 488 0 28 -3 52 -7 52 -5 0 -168 -91
-363 -201z"/>
</g>
</svg>
