<?xml version="1.0" standalone="no"?>
<!DOCTYPE svg PUBLIC "-//W3C//DTD SVG 20010904//EN"
 "http://www.w3.org/TR/2001/REC-SVG-20010904/DTD/svg10.dtd">
<svg version="1.0" xmlns="http://www.w3.org/2000/svg"
 width="512.000000pt" height="512.000000pt" viewBox="0 0 512.000000 512.000000"
 preserveAspectRatio="xMidYMid meet">

<g transform="translate(0.000000,512.000000) scale(0.100000,-0.100000)"
fill="#000000" stroke="none">
<path d="M2737 5110 c-43 -5 -112 -18 -153 -30 -42 -11 -128 -27 -192 -36
-556 -72 -874 -364 -957 -874 -34 -212 -9 -566 47 -666 21 -39 32 -81 48 -185
29 -192 41 -245 50 -228 14 26 50 221 86 474 37 263 63 364 125 487 113 225
277 367 496 430 70 21 99 23 278 22 189 0 205 -2 290 -28 290 -89 453 -276
539 -622 27 -106 101 -543 112 -659 4 -38 10 -79 14 -90 6 -18 9 -17 23 11 9
17 21 71 27 120 23 181 32 224 52 249 11 14 26 25 34 25 8 0 19 11 24 25 8 22
13 24 29 15 71 -38 113 -190 92 -331 -33 -215 -185 -346 -282 -243 l-23 24
-47 -143 c-25 -79 -68 -185 -94 -237 -43 -85 -49 -104 -53 -177 -5 -99 12
-273 40 -402 75 -348 276 -663 560 -876 54 -41 106 -79 117 -84 18 -10 19 -9
6 27 -34 94 -127 418 -139 484 -47 252 -24 455 112 968 121 458 153 617 173
866 30 383 -58 817 -227 1115 -177 313 -417 485 -775 554 -102 19 -325 27
-432 15z"/>
<path d="M2062 3695 c-29 -8 -65 -21 -81 -29 -36 -19 -81 -72 -81 -96 0 -18 2
-18 55 1 122 43 234 47 386 13 21 -5 27 -2 32 17 10 38 -3 69 -37 86 -43 23
-203 28 -274 8z"/>
<path d="M2805 3701 c-60 -15 -75 -29 -75 -71 0 -21 4 -42 10 -45 5 -3 46 2
91 11 111 22 250 7 362 -41 16 -6 16 -4 7 21 -23 59 -74 96 -165 120 -53 15
-180 17 -230 5z"/>
<path d="M2134 3478 c-37 -17 -57 -77 -52 -157 4 -84 29 -126 73 -126 44 0 69
42 73 126 7 111 -37 182 -94 157z"/>
<path d="M2921 3474 c-54 -38 -68 -156 -28 -234 26 -53 57 -63 93 -29 53 49
52 202 -2 256 -27 27 -33 28 -63 7z"/>
</g>
</svg>
